<?xml version="1.0"?>
<svg xmlns="http://www.w3.org/2000/svg" xmlns:xlink="http://www.w3.org/1999/xlink" xmlns:svgjs="http://svgjs.com/svgjs" version="1.1" width="512" height="512" x="0" y="0" viewBox="0 0 512 512" style="enable-background:new 0 0 512 512" xml:space="preserve"><g><g xmlns="http://www.w3.org/2000/svg"><path d="m482 25h-452c-16.542 0-30 13.458-30 30v298c0 16.542 13.458 30 30 30h147v74h-81c-8.284 0-15 6.716-15 15s6.716 15 15 15h320c8.284 0 15-6.716 15-15s-6.716-15-15-15h-81v-74h147c16.542 0 30-13.458 30-30v-298c0-16.542-13.458-30-30-30zm-177 432h-98v-74h98zm177-104c-13.157 0-441.456 0-452 0v-298h452c.019 304.472.1 298 0 298z" fill="#fbd784" data-original="#000000" style=""/></g></g></svg>
